/* XPM */
static char * boule_de_feu_xpm[] = {
"32 32 3 1",
" 	c #803E0C",
".	c #A1A1A1",
"+	c #FFFFFF",
"                                ",
"                                ",
"                                ",
"                                ",
"                                ",
"                                ",
"                                ",
"             .....              ",
"           ++++++...            ",
"         ++++++++++...          ",
"        +++++++++++++..         ",
"        ++++++++++++++.         ",
"       +++++++++++++++..        ",
"       ++++++++++++++++.        ",
"      +++++++++++++++++..       ",
"      +++++++++++++++++..       ",
"      +++++++++++++++++..       ",
"      +++++++++++++++++..       ",
"      +++++++++++++++++..       ",
"       ++++++++++++++++.        ",
"       ++++++++++++++++.        ",
"        ++++++++++++++.         ",
"        ++++++++++++++.         ",
"         ++++++++++++.          ",
"           +++++++++            ",
"             +++++              ",
"                                ",
"                                ",
"                                ",
"                                ",
"                                ",
"                                "};
