/* XPM */
static char * exit_xpm[] = {
"32 32 2 1",
" 	c #07FF00",
".	c #FFFFFF",
"                                ",
"                                ",
"                                ",
"                                ",
"                                ",
"                                ",
"                                ",
"                                ",
"                   ......       ",
"                   ......       ",
"                   ......       ",
"                 ........       ",
"                 ........       ",
"                 ........       ",
"                   ..           ",
"                   ..           ",
"                  ...           ",
"                 ...            ",
"                 ...      .     ",
"                ....   ....     ",
"        ...................     ",
"     .....................      ",
"    ...      ...                ",
"    .       ...                 ",
"         ....                   ",
"        ... .                   ",
"     ....   ..                  ",
"    ..      ..                  ",
"            ..                  ",
"            ..                  ",
"             .                  ",
"             .                  "};
