/* XPM */
static char * perso_xpm[] = {
"32 32 3 1",
" 	c #803E0C",
".	c #000000",
"+	c #FFFFFF",
"                                ",
"                                ",
"                                ",
"                                ",
"                                ",
"                                ",
"                                ",
"            .......             ",
"          ...........           ",
"         .............          ",
"        ................        ",
"       ....++++++++++...        ",
"       ...++++++++++++...       ",
"      ...+++++++++++++...       ",
"      ..+..+++++++++.....       ",
"      .+++...++++++..+++.       ",
"      ++++++..++++..+++++       ",
"      ++++.....++.....+++       ",
"      ++++++++....+++++++       ",
"       ++++++++..+++++++        ",
"       +++++++++++++++++        ",
"        ++++++....+++++         ",
"        +++++..++..++++         ",
"         ++++.++++.+++          ",
"           +++++++++            ",
"             +++++              ",
"                                ",
"                                ",
"                                ",
"                                ",
"                                ",
"                                "};
